<svg width="21" height="21" viewBox="0 0 21 21" fill="none" xmlns="http://www.w3.org/2000/svg">
<path fill-rule="evenodd" clip-rule="evenodd" d="M16.4793 13.4344C17.7665 14.1497 19.0545 14.8651 20.3416 15.5805C20.8956 15.8881 21.1386 16.5408 20.9205 17.1362C19.8131 20.1616 16.5696 21.7586 13.5178 20.6447C7.26862 18.3638 2.63648 13.7314 0.355289 7.48221C-0.758606 4.43041 0.838416 1.1869 3.86386 0.0794888C4.45919 -0.138633 5.11193 0.104392 5.4203 0.658431C6.13489 1.94562 6.85033 3.23356 7.56563 4.52067C7.90094 5.12452 7.82213 5.84128 7.36318 6.35692C6.76215 7.03325 6.16123 7.70943 5.5602 8.38505C6.84315 11.5092 9.49069 14.1569 12.6149 15.4398C13.2905 14.8387 13.9667 14.2378 14.643 13.6368C15.1594 13.1778 15.8756 13.099 16.4793 13.4343L16.4793 13.4344Z" fill="#1C1C1C"/>
</svg>
