<svg width="23" height="17" viewBox="0 0 23 17" fill="none" xmlns="http://www.w3.org/2000/svg">
<path d="M11.9391 11.9389C11.7849 12.0928 11.5763 12.179 11.3585 12.179C11.1407 12.179 10.9321 12.0928 10.7779 11.9389L0.0802444 1.24048C0.0481484 1.3723 0 1.49896 0 1.64138V14.785C0 15.6925 0.735089 16.4279 1.64295 16.4279H21.3568C22.2632 16.4279 23 15.6928 23 14.785V1.64138C23 1.41643 22.9536 1.20035 22.8708 1.00635L11.9391 11.9389Z" fill="#1C1C1C"/>
<path d="M11.358 10.1968L21.5208 0.0332422C21.4629 0.0272243 21.4148 0 21.3561 0H1.64217C1.50118 0 1.37251 0.0469971 1.24097 0.07995L11.358 10.1968Z" fill="#1C1C1C"/>
</svg>
