<?xml version="1.0" encoding="utf-8"?><svg xmlns="http://www.w3.org/2000/svg" xmlns:xlink="http://www.w3.org/1999/xlink"><symbol viewBox="0 0 11 17" id="arr-left" xmlns="http://www.w3.org/2000/svg"><path d="M9.75 1L2 8.623 9.5 16"/></symbol><symbol viewBox="0 0 11 17" id="arr-right" xmlns="http://www.w3.org/2000/svg"><path d="M1 1l7.75 7.623L1.25 16"/></symbol><symbol viewBox="0 0 24 16" id="check" xmlns="http://www.w3.org/2000/svg"><path d="M22.115 0L9.885 12.23l-8-8L0 6.115 9.884 16 24 1.885 22.115 0z"/></symbol><symbol viewBox="0 0 22 23" id="close" xmlns="http://www.w3.org/2000/svg"><path d="M20.533 0L11 9.967 1.467 0 0 1.533 9.533 11.5 0 21.466 1.467 23 11 13.033 20.533 23 22 21.467 12.467 11.5 22 1.534 20.533 0z"/></symbol><symbol viewBox="0 0 12 8" id="down" xmlns="http://www.w3.org/2000/svg"><path d="M1 1.5l5 5 5-5"/></symbol><symbol viewBox="0 0 23 17" id="mail" xmlns="http://www.w3.org/2000/svg"><path d="M11.94 11.939a.821.821 0 01-1.162 0L.08 1.24c-.032.132-.08.26-.08.401v13.144c0 .908.735 1.643 1.643 1.643h19.714c.906 0 1.643-.735 1.643-1.643V1.641a1.62 1.62 0 00-.13-.635L11.94 11.94z"/><path d="M11.358 10.197L21.521.033C21.463.027 21.415 0 21.356 0H1.642c-.14 0-.27.047-.401.08l10.117 10.117z"/></symbol><symbol viewBox="0 0 20 28" id="map" xmlns="http://www.w3.org/2000/svg"><path d="M10 0C4.476 0 0 4.36 0 9.74c0 2.101.698 4.513 1.873 6.12L10 27.827l8.127-11.965C19.302 14.253 20 11.873 20 9.739 20 4.36 15.524 0 10 0zm0 13.45c-2.095 0-3.81-1.67-3.81-3.71 0-2.041 1.715-3.71 3.81-3.71 2.095 0 3.81 1.669 3.81 3.71 0 2.04-1.715 3.71-3.81 3.71z"/></symbol><symbol viewBox="0 0 21 21" id="phone" xmlns="http://www.w3.org/2000/svg"><path fill-rule="evenodd" clip-rule="evenodd" d="M16.48 13.434l3.862 2.147c.554.307.797.96.579 1.555-1.108 3.026-4.351 4.623-7.403 3.509C7.268 18.364 2.636 13.73.355 7.482-.759 4.43.838 1.187 3.864.08A1.27 1.27 0 015.42.66l2.146 3.86c.335.604.256 1.32-.203 1.836L5.56 8.385c1.283 3.124 3.93 5.772 7.055 7.055l2.028-1.803a1.574 1.574 0 011.836-.203z"/></symbol><symbol viewBox="0 0 25 24" id="tg" xmlns="http://www.w3.org/2000/svg"><path d="M24.958 1.74l-4.553 18.72a1.412 1.412 0 01-2.018.917l-5.759-2.965-2.723 4.444c-.74 1.21-2.615.685-2.615-.73v-4.952c0-.383.16-.748.437-1.015L18.95 5.472c-.009-.134-.152-.25-.294-.152L5.263 14.617l-4.5-2.315c-1.052-.544-1.008-2.066.081-2.538L23.03.12c1.062-.463 2.205.49 1.928 1.62z"/></symbol><symbol viewBox="0 0 25 25" id="wp" xmlns="http://www.w3.org/2000/svg"><path fill-rule="evenodd" clip-rule="evenodd" d="M12.5 0C5.591 0 0 5.588 0 12.5c0 2.607.795 5.018 2.207 7.09a.625.625 0 01.078.537l-1.27 4.248 4.16-1.435a.624.624 0 01.538.068A12.426 12.426 0 0012.5 25C19.412 25 25 19.413 25 12.5A12.49 12.49 0 0012.5 0zM7.383 5.45l2.275 3.759-.947.938a.625.625 0 00-.098.752c1.446 2.503 3.159 4.45 5.557 5.508.235.104.51.054.694-.127l1.005-1.006 3.672 2.295c-.406.915-.936 1.46-1.543 1.777-.702.368-1.56.437-2.539.234-1.958-.405-4.323-1.944-6.25-3.916-1.927-1.97-3.418-4.368-3.799-6.318-.19-.975-.106-1.815.254-2.48.31-.574.837-1.065 1.72-1.417h-.001z"/></symbol></svg>