<svg width="25" height="25" viewBox="0 0 25 25" fill="none" xmlns="http://www.w3.org/2000/svg">
<path fill-rule="evenodd" clip-rule="evenodd" d="M12.5001 7.76997e-05C5.59102 7.76997e-05 0 5.58775 0 12.5002C0 15.1071 0.794985 17.5182 2.20711 19.5901C2.31348 19.7479 2.34226 19.9457 2.28515 20.1272L1.0156 24.3753L5.17586 22.9397V22.9399C5.35591 22.8797 5.55362 22.905 5.71297 23.0081C7.66154 24.2724 9.99443 25.0003 12.4999 25.0003C19.4123 25.0003 25 19.4126 25 12.5001C25 5.58767 19.4123 0 12.4999 0L12.5001 7.76997e-05ZM7.38294 5.44924L9.65825 9.20904L8.71086 10.1466L8.71108 10.1468C8.51271 10.3467 8.47282 10.6547 8.61342 10.8987C10.0591 13.402 11.7718 15.3495 14.1701 16.4065C14.4053 16.5111 14.6804 16.4608 14.8635 16.2796L15.8692 15.2739L19.5412 17.5688C19.1347 18.4839 18.6045 19.0287 17.9983 19.3461C17.296 19.7138 16.4382 19.7833 15.4592 19.5804C13.5013 19.1745 11.1364 17.6357 9.20919 15.6643C7.28199 13.6931 5.79051 11.2959 5.41037 9.34558C5.22029 8.37051 5.30422 7.53083 5.66433 6.86514C5.9743 6.29187 6.50094 5.80118 7.38315 5.44911L7.38294 5.44924Z" fill="#039300"/>
</svg>
